<?xml version="1.0" encoding="UTF-8"?>
<svg id="Layer_2" data-name="Layer 2" xmlns="http://www.w3.org/2000/svg" viewBox="0 0 53.2 60.67">
  <defs>
    <style>
      .cls-1 {
        fill: #2b496f;
      }

      .cls-2 {
        fill: #fdfbfc;
      }
    </style>
  </defs>
  <g id="Layer_1-2" data-name="Layer 1">
    <g>
      <g>
        <path class="cls-2" d="M17.87,41.63c-.38,0-.7-.22-.85-.55-.05-.11-.08-.24-.08-.38v-.29c-.01-1.28-.21-5.81-2.21-10.08-2.52-5.4-6.86-8.13-12.89-8.13-.51,0-.92-.41-.92-.92s.41-.92.92-.92c6.03,0,10.37-2.74,12.89-8.13,2-4.27,2.2-8.8,2.21-10.09v-.28c0-.5.4-.92.91-.92h.02c.38,0,.7.23.85.55.05.11.08.24.08.37v.29c.01,1.28.21,5.81,2.21,10.08,2.52,5.4,6.86,8.13,12.89,8.13.51,0,.92.41.92.92s-.41.92-.92.92c-6.03,0-10.37,2.74-12.89,8.13-2,4.27-2.2,8.8-2.21,10.09v.28c0,.5-.4.92-.91.92h-.02Z"/>
        <path class="cls-1" d="M17.87,1.85v.29c.03,2.41.76,19.14,16.02,19.14-15.26,0-16,16.73-16.02,19.14v.29s0-.02,0-.04c0,.02,0,.04,0,.04v-.29c-.03-2.41-.76-19.14-16.02-19.14,15.26,0,16-16.73,16.02-19.14v-.29s0,.02,0,.04c0-.02,0-.04,0-.04M17.87,0c-.79,0-1.47.5-1.73,1.2-.08.2-.12.42-.12.65v.29c-.03,2.87-.86,17.29-14.17,17.29-1.02,0-1.85.83-1.85,1.85s.83,1.85,1.85,1.85c13.31,0,14.14,14.42,14.17,17.31v.27c0,1.02.82,1.84,1.83,1.85h.02c.79,0,1.47-.5,1.73-1.2.08-.2.12-.42.12-.65v-.29c.03-2.87.86-17.29,14.17-17.29,1.02,0,1.85-.83,1.85-1.85s-.83-1.85-1.85-1.85c-13.31,0-14.14-14.42-14.17-17.31v-.27c0-1.02-.82-1.84-1.83-1.85h-.02Z"/>
      </g>
      <g>
        <path class="cls-2" d="M39.45,49.26c-.32,0-.58-.21-.68-.49-.02-.07-.04-.14-.04-.22v-.22c-.01-.98-.17-4.47-1.7-7.75-1.94-4.15-5.27-6.25-9.91-6.25-.39,0-.71-.32-.71-.71s.32-.71.71-.71c4.64,0,7.98-2.1,9.91-6.25,1.54-3.28,1.69-6.77,1.7-7.76v-.22c0-.39.32-.71.71-.71.32,0,.58.21.68.49.02.07.04.14.04.22v.22c.01.98.17,4.47,1.7,7.75,1.94,4.15,5.27,6.25,9.91,6.25.39,0,.71.32.71.71s-.32.71-.71.71c-4.64,0-7.97,2.1-9.91,6.25-1.54,3.28-1.69,6.77-1.7,7.76v.22c0,.39-.32.71-.71.71Z"/>
        <path class="cls-1" d="M39.45,18.66v.22c.02,1.85.58,14.72,12.33,14.72-11.74,0-12.31,12.87-12.33,14.72v.22s0-.01,0-.03c0,.02,0,.03,0,.03v-.22c-.02-1.85-.58-14.72-12.33-14.72,11.74,0,12.31-12.87,12.33-14.72v-.22s0,.01,0,.03c0-.02,0-.03,0-.03M39.45,17.24c-.6,0-1.12.38-1.33.91-.06.16-.1.33-.1.51v.22c-.02,2.21-.66,13.3-10.9,13.3-.79,0-1.42.64-1.42,1.42s.64,1.42,1.42,1.42c10.24,0,10.88,11.09,10.9,13.31v.21c0,.78.63,1.42,1.41,1.42,0,0,0,0,.01,0,.6,0,1.12-.38,1.33-.91.06-.16.1-.33.1-.51v-.22c.02-2.21.66-13.3,10.9-13.3.79,0,1.42-.64,1.42-1.42s-.64-1.42-1.42-1.42c-10.24,0-10.88-11.09-10.9-13.31v-.21c0-.78-.63-1.42-1.41-1.42,0,0,0,0-.01,0h0Z"/>
      </g>
      <g>
        <path class="cls-2" d="M11.09,60.13c-.29,0-.53-.23-.53-.52v-.17c-.02-1.75-.53-10.51-8.71-10.51-.29,0-.53-.24-.53-.53s.24-.53.53-.53c8.18,0,8.69-8.76,8.71-10.51v-.16c0-.26.19-.48.45-.53.03,0,.06,0,.09,0,.29,0,.53.24.53.53v.17c.02,1.75.53,10.51,8.71,10.51.29,0,.53.24.53.53s-.24.53-.53.53c-8.18,0-8.69,8.76-8.71,10.51v.15c0,.29-.24.54-.53.54h0Z"/>
        <path class="cls-1" d="M11.09,37.19v.17c.02,1.39.44,11.04,9.24,11.04-8.81,0-9.23,9.65-9.24,11.04v.17s0,0,0-.02c0,.01,0,.02,0,.02v-.17c-.02-1.39-.44-11.04-9.24-11.04,8.81,0,9.23-9.65,9.24-11.04v-.17s0,0,0,.02c0-.01,0-.02,0-.02M11.09,36.13c-.45,0-.84.28-.99.68-.05.12-.07.25-.07.39v.17c-.02,1.66-.5,9.97-8.18,9.97-.59,0-1.07.48-1.07,1.07s.48,1.07,1.07,1.07c7.68,0,8.16,8.32,8.18,9.98v.16c0,.59.47,1.06,1.06,1.07h0c.45,0,.84-.28.99-.68.05-.12.07-.25.07-.39v-.17c.02-1.66.5-9.97,8.18-9.97.59,0,1.07-.48,1.07-1.07s-.48-1.07-1.07-1.07c-7.68,0-8.16-8.32-8.18-9.98v-.16c0-.58-.47-1.06-1.05-1.07,0,0,0,0-.01,0h0Z"/>
      </g>
    </g>
  </g>
</svg>