<?xml version="1.0" encoding="UTF-8"?>
<svg id="Layer_2" data-name="Layer 2" xmlns="http://www.w3.org/2000/svg" viewBox="0 0 86.72 80.94">
  <defs>
    <style>
      .cls-1 {
        fill: #2b496f;
      }

      .cls-2 {
        fill: #fff;
      }

      .cls-3 {
        fill: #ef6864;
      }
    </style>
  </defs>
  <g id="Layer_1-2" data-name="Layer 1">
    <g>
      <path class="cls-1" d="M22.26,9.59c-4.16,2.32-10.79,6.81-14.5,9.81,3.54-1.19,7.07-2.38,10.61-3.56-2.87,3.88-5.71,7.89-7.3,12.46-1.42,4.07-1.79,8.43-1.92,12.73-.15,5.12.03,10.31,1.4,15.25s4,9.65,8.05,12.79c2.7,2.09,5.92,3.42,9.2,4.38,8.26,2.41,17.24,2.57,25.46.01,8.22-2.55,15.63-7.87,20.31-15.1,1.74-2.69,3.12-5.65,3.64-8.81.45-2.69.27-5.45-.04-8.16-1.12-9.71-4.06-19.4-9.91-27.23S52.39.55,42.63.03c-9.76-.51-19.95,4.92-23.72,13.93"/>
      <path class="cls-3" d="M24.22,62.39c.49-1.37.97-2.74,1.47-4.1,2.15-5.85,4.29-11.7,6.46-17.55.24-.65.12-1.13-.27-1.67-4.22-5.94-8.43-11.89-12.63-17.84-.21-.3-.4-.62-.65-1,.26-.09.4-.19.53-.18,4.29.16,8.58.34,12.87.51,3.3.13,6.61.27,9.91.33.44,0,1.05-.31,1.32-.66,4.46-5.92,8.87-11.88,13.3-17.82.17-.22.36-.42.66-.77.16.37.3.6.37.85,2.01,7.07,4.03,14.13,5.99,21.22.25.9.71,1.32,1.52,1.59,4.23,1.4,8.45,2.81,12.67,4.23,2.77.93,5.54,1.87,8.31,2.82.19.07.36.2.68.38-.39.3-.67.54-.97.74-6.02,4.05-12.04,8.1-18.08,12.11-.69.46-.95.97-.96,1.79-.06,6.42-.16,12.85-.25,19.27,0,.73.03,1.46.01,2.19,0,.46-.08.91-.14,1.62-1.36-1.06-2.53-1.96-3.69-2.88-4.85-3.81-9.71-7.61-14.55-11.45-.56-.45-1.04-.54-1.72-.32-6.92,2.18-13.84,4.33-20.77,6.48-.38.12-.77.21-1.16.32-.07-.07-.15-.14-.22-.21Z"/>
      <g>
        <path class="cls-2" d="M57.25,63.41c-3.95-3.1-7.91-6.21-11.85-9.33-.65-.51-1.31-.76-2.03-.76-.35,0-.71.06-1.1.18-5.78,1.82-11.57,3.62-17.35,5.42l-2,.62c.19-.52.37-1.04.56-1.56l.41-1.12c2.01-5.47,4.02-10.95,6.05-16.42.4-1.08.25-2.09-.46-3.09-3.74-5.26-7.46-10.53-11.19-15.8l-.51-.72c1.51.06,12.03.48,12.03.48,2.76.11,5.61.22,8.43.27h0c.96,0,2-.52,2.57-1.27,3.44-4.57,6.85-9.15,10.26-13.74l1.92-2.58.55,1.92c1.62,5.69,3.29,11.57,4.89,17.36.37,1.36,1.17,2.2,2.52,2.64,4.22,1.39,8.44,2.81,12.66,4.22,2.1.71,4.2,1.42,6.29,2.13l-1.55,1.04c-5.05,3.39-10.1,6.79-15.17,10.16-1.11.74-1.63,1.71-1.64,3.05-.04,4.51-.1,9.02-.17,13.53l-.08,5.73c0,.27,0,.53,0,.8-.46-.35-4.04-3.16-4.04-3.16Z"/>
        <path class="cls-1" d="M52.37,7.39c1.52,5.35,3.09,10.86,4.58,16.28.51,1.84,1.69,3.08,3.51,3.69,4.36,1.44,8.82,2.93,12.65,4.22,1.12.38,2.24.75,3.36,1.13-4.65,3.12-9.43,6.33-14.15,9.47-1.53,1.01-2.31,2.47-2.33,4.31-.04,4.53-.11,9.14-.17,13.59-.02,1.12-.03,2.24-.05,3.36l-1.68-1.32c-3.86-3.03-7.85-6.16-11.75-9.25-.92-.73-1.92-1.1-2.98-1.1-.51,0-1.02.08-1.56.25-5.45,1.72-11,3.45-16.39,5.12,1.95-5.31,3.96-10.8,5.96-16.18.4-1.08.62-2.74-.64-4.51-3.31-4.66-6.61-9.32-9.9-13.98.52.02,1.04.04,1.56.06,1.95.08,3.9.16,5.85.23l1.46.06c2.79.11,5.67.22,8.52.28h.04s.03,0,.03,0c1.39,0,2.9-.76,3.75-1.89,3.46-4.6,6.95-9.29,10.32-13.82h0M53.54.79c-.3.35-.49.55-.66.77-4.43,5.94-8.84,11.9-13.3,17.82-.27.35-.86.66-1.3.66,0,0-.01,0-.02,0-3.31-.06-6.61-.2-9.91-.33-4.29-.17-8.58-.34-12.87-.51,0,0,0,0-.01,0-.13,0-.27.09-.52.18.25.38.44.7.65,1,4.21,5.95,8.41,11.9,12.63,17.84.39.54.51,1.02.27,1.67-2.17,5.84-4.32,11.69-6.46,17.55-.5,1.36-.98,2.73-1.47,4.1.07.07.15.14.22.21.39-.11.78-.2,1.16-.32,6.92-2.15,13.85-4.3,20.77-6.48.24-.07.45-.11.64-.11.38,0,.71.14,1.08.43,4.84,3.83,9.7,7.64,14.55,11.45,1.16.91,2.33,1.82,3.69,2.88.06-.71.13-1.16.14-1.62.02-.73-.02-1.46-.01-2.19.09-6.42.19-12.85.25-19.27,0-.83.27-1.33.96-1.79,6.04-4.02,12.06-8.07,18.08-12.11.3-.2.58-.44.97-.74-.32-.18-.49-.32-.68-.38-2.77-.95-5.54-1.89-8.31-2.82-4.22-1.42-8.44-2.83-12.67-4.23-.81-.27-1.27-.69-1.52-1.59-1.95-7.08-3.98-14.15-5.99-21.22-.07-.25-.21-.48-.37-.85h0Z"/>
      </g>
      <g>
        <path class="cls-3" d="M14.08,79.84c.04-.77.07-1.53.12-2.3l.04-.73c.26-4.52.52-9.04.8-13.56.04-.68-.2-1.19-.78-1.64-3.81-2.95-7.61-5.91-11.41-8.87l-1.79-1.4,4.73-1.25,5.37-1.4c2.05-.53,4.16-1.08,6.23-1.67.5-.14,1.01-.62,1.19-1.12,1.51-4.13,3-8.27,4.49-12.4l1.24-3.43,1.51,2.34c2.49,3.87,4.97,7.74,7.43,11.63.46.73,1.06,1.07,1.93,1.09,3.41.08,6.82.18,10.22.29,2.11.06,4.22.14,6.33.21l-1.48,1.81c-3.02,3.69-6.04,7.39-9.08,11.07-.52.63-.65,1.24-.41,2.04.98,3.36,1.95,6.73,2.92,10.1l1.17,4.08c.08.26.16.52.24.78.09.27.18.54.25.82.02.06.03.12.05.18l-2.39-.92-2.46-.96c-3.58-1.4-7.17-2.79-10.74-4.2-.28-.11-.53-.17-.78-.17-.37,0-.71.12-1.08.37-3.9,2.66-7.81,5.31-11.72,7.95,0,0-2.12,1.44-2.15,1.45v-.2Z"/>
        <path class="cls-1" d="M24.45,31.33l.85,1.33c2.46,3.83,5,7.78,7.47,11.69.57.9,1.32,1.32,2.39,1.35,3.41.09,6.81.19,10.22.29,1.74.05,3.48.11,5.2.17l-.9,1.1c-2.93,3.58-5.95,7.28-8.94,10.9-.64.77-.8,1.58-.52,2.55.98,3.33,1.93,6.67,2.89,10.01l1.2,4.17c.07.23.14.46.21.69-.45-.17-.88-.34-1.32-.51l-2.54-.99c-3.56-1.39-7.11-2.77-10.66-4.17-.35-.14-.67-.2-.98-.2-.48,0-.93.15-1.4.47-3.82,2.61-7.65,5.2-11.49,7.8l-1.45.98c.02-.46.05-.91.07-1.37l.04-.76c.26-4.51.52-9.03.8-13.54.05-.86-.27-1.56-1-2.12-3.87-3-7.74-6.01-11.6-9.02l-.73-.57c1.18-.31,2.37-.61,3.55-.92,1.45-.38,2.9-.75,4.35-1.13l1.08-.28c2.06-.54,4.2-1.09,6.29-1.68.66-.19,1.32-.81,1.57-1.47,1.51-4.13,3.03-8.33,4.49-12.39l.86-2.38M24.16,28.98c-.14.32-.24.51-.31.71-1.93,5.34-3.84,10.68-5.8,16.01-.12.32-.49.69-.82.78-2.44.69-4.89,1.32-7.34,1.96-3.18.83-6.37,1.65-9.55,2.48-.1.03-.18.13-.35.25.27.23.48.42.7.59,4.4,3.43,8.81,6.86,13.22,10.28.4.31.6.64.57,1.17-.29,4.76-.57,9.53-.85,14.3-.06,1.11-.11,2.22-.17,3.33.07.03.14.07.21.1.26-.16.53-.32.78-.49,4.6-3.11,9.2-6.22,13.79-9.36.27-.18.51-.27.76-.27.18,0,.36.04.57.13,4.4,1.74,8.8,3.45,13.21,5.17,1.06.41,2.11.82,3.34,1.29-.11-.53-.16-.88-.26-1.22-.15-.54-.34-1.07-.5-1.61-1.36-4.73-2.71-9.46-4.09-14.18-.18-.61-.1-1.03.31-1.53,3.54-4.29,7.05-8.59,10.57-12.89.18-.22.33-.45.55-.76-.27-.06-.43-.12-.58-.13-2.24-.08-4.48-.16-6.72-.22-3.41-.1-6.82-.2-10.23-.29-.66-.02-1.09-.23-1.47-.83-3-4.76-6.05-9.49-9.09-14.23-.11-.17-.26-.31-.46-.54h0Z"/>
      </g>
      <g>
        <path class="cls-2" d="M14.85,74.12c.26-4.54.53-9.09.81-13.63.05-.88-.28-1.59-1.02-2.17-3.97-3.07-7.93-6.16-11.89-9.24l-.35-.27c1.15-.3,8.84-2.3,8.84-2.3,2.08-.54,4.22-1.1,6.33-1.69.68-.19,1.35-.82,1.6-1.5,1.52-4.14,3.01-8.29,4.51-12.44l.8-2.23.76,1.19c2.51,3.91,5.02,7.81,7.5,11.74.57.91,1.35,1.35,2.43,1.38,3.41.08,6.81.18,10.22.29,1.7.05,3.39.11,5.09.17l-.88,1.07c-2.96,3.62-5.92,7.24-8.9,10.85-.65.79-.82,1.61-.53,2.6.98,3.34,1.94,6.69,2.9,10.03l1.19,4.14c.06.2.12.39.18.59l-3.62-1.41c-3.6-1.4-7.21-2.81-10.8-4.23-.35-.14-.68-.21-1-.21-.49,0-.96.16-1.43.48-3.75,2.56-7.51,5.11-11.27,7.66l-1.57,1.06c.02-.42.11-1.92.11-1.92Z"/>
        <path class="cls-1" d="M24.76,31.28c2.3,3.59,4.67,7.28,6.97,10.92.78,1.24,1.92,1.89,3.39,1.92,3.4.08,6.81.19,10.21.29.91.03,1.81.06,2.72.09-2.72,3.32-5.51,6.74-8.27,10.08-.89,1.08-1.15,2.32-.75,3.68.98,3.33,1.93,6.67,2.89,10l.71,2.48-1.53-.6c-3.56-1.39-7.11-2.77-10.66-4.17-.49-.19-.96-.29-1.43-.29-.72,0-1.43.23-2.09.68-3.62,2.47-7.25,4.93-10.88,7.39.25-4.4.51-8.79.78-13.19.05-.88-.16-2.15-1.47-3.16-3.46-2.68-6.91-5.37-10.36-8.06.38-.1.76-.2,1.14-.3,1.45-.38,2.9-.75,4.36-1.13l1.08-.28c2.07-.54,4.21-1.09,6.31-1.69,1.05-.3,2-1.19,2.38-2.23,1.51-4.13,3.03-8.34,4.49-12.4v-.03M24.16,26.18c-.14.32-.24.51-.31.71-1.93,5.34-3.84,10.68-5.8,16.01-.12.32-.49.69-.82.78-2.44.69-4.89,1.32-7.34,1.96-3.18.83-6.37,1.65-9.55,2.48-.1.03-.18.13-.35.25.27.23.48.42.7.59,4.4,3.43,8.81,6.86,13.22,10.28.4.31.6.64.57,1.17-.29,4.76-.57,9.53-.85,14.3-.06,1.11-.11,2.22-.17,3.33.07.03.14.07.21.1.26-.16.53-.32.78-.49,4.6-3.11,9.2-6.22,13.79-9.36.27-.18.51-.27.76-.27.18,0,.36.04.57.13,4.4,1.74,8.8,3.45,13.21,5.17,1.06.41,2.11.82,3.34,1.29-.11-.53-.16-.88-.26-1.22-.15-.54-.34-1.07-.5-1.61-1.36-4.73-2.71-9.46-4.09-14.18-.18-.61-.1-1.04.31-1.53,3.54-4.29,7.05-8.59,10.57-12.89.18-.22.33-.45.55-.76-.27-.06-.43-.12-.58-.13-2.24-.08-4.48-.16-6.72-.22-3.41-.1-6.82-.2-10.23-.29-.66-.02-1.09-.23-1.47-.83-3-4.76-6.05-9.49-9.09-14.23-.11-.17-.26-.31-.46-.54h0Z"/>
      </g>
    </g>
  </g>
</svg>