<?xml version="1.0" encoding="UTF-8"?>
<svg id="Layer_2" data-name="Layer 2" xmlns="http://www.w3.org/2000/svg" viewBox="0 0 52.71 54.76">
  <defs>
    <style>
      .cls-1 {
        fill: #2b496f;
      }

      .cls-2 {
        fill: #fff;
      }

      .cls-3 {
        fill: #ef6864;
      }
    </style>
  </defs>
  <g id="Layer_1-2" data-name="Layer 1">
    <g>
      <g>
        <path class="cls-3" d="M14.08,53.62c.04-.75.07-1.51.12-2.26l.04-.73c.26-4.52.52-9.04.8-13.56.04-.68-.2-1.19-.78-1.64-3.76-2.91-7.51-5.83-11.26-8.75l-1.95-1.52,4.73-1.25,5.37-1.4c2.05-.53,4.16-1.08,6.23-1.67.5-.14,1.01-.62,1.19-1.12,1.51-4.13,3-8.26,4.49-12.4l1.24-3.43,1.5,2.33c2.49,3.88,4.98,7.75,7.44,11.65.46.73,1.06,1.07,1.93,1.09,3.41.08,6.82.18,10.22.29,2.11.06,4.22.14,6.33.21l-1.56,1.91c-2.99,3.66-5.99,7.33-9,10.97-.52.62-.64,1.25-.41,2.04.98,3.34,1.94,6.69,2.9,10.04l1.19,4.14c.08.26.16.52.24.78.09.27.18.54.25.82.02.06.03.12.05.18,0,0-1.67-.64-2.39-.92l-2.47-.96c-3.58-1.4-7.16-2.79-10.74-4.2-.28-.11-.53-.17-.78-.17-.37,0-.71.12-1.08.37-3.91,2.67-7.84,5.33-11.77,7.99,0,0-2.07,1.4-2.1,1.42v-.24Z"/>
        <path class="cls-1" d="M24.45,5.14l.85,1.33c2.46,3.83,5,7.78,7.47,11.69.57.9,1.32,1.33,2.39,1.35,3.41.09,6.81.19,10.22.29,1.74.05,3.48.11,5.2.17l-.93,1.14c-2.92,3.57-5.93,7.25-8.91,10.86-.64.77-.8,1.58-.52,2.55.98,3.33,1.93,6.67,2.89,10.01l1.2,4.16c.07.23.14.46.21.69-.45-.17-.88-.34-1.32-.51l-2.53-.99c-3.56-1.39-7.12-2.77-10.67-4.18-.35-.14-.67-.2-.98-.2-.48,0-.93.15-1.4.47-3.81,2.61-7.64,5.19-11.46,7.78l-1.47,1c.02-.46.05-.91.07-1.37l.04-.77c.26-4.51.52-9.02.8-13.52.05-.86-.27-1.56-1-2.12-3.86-2.99-7.71-5.99-11.56-8.99l-.77-.6c1.19-.31,2.39-.62,3.58-.93,1.44-.37,2.88-.75,4.32-1.12l1.09-.28c2.06-.54,4.18-1.09,6.27-1.68.66-.19,1.32-.81,1.57-1.47,1.51-4.13,3.03-8.33,4.49-12.39l.86-2.38M24.16,2.8c-.14.32-.24.51-.31.71-1.93,5.34-3.84,10.68-5.8,16.01-.12.32-.49.69-.82.78-2.44.69-4.89,1.32-7.34,1.96-3.18.83-6.37,1.65-9.55,2.48-.1.03-.18.13-.35.25.27.23.48.42.7.59,4.4,3.43,8.81,6.86,13.22,10.28.4.31.6.64.57,1.17-.29,4.76-.57,9.53-.85,14.3-.06,1.11-.11,2.22-.17,3.33.07.03.14.07.21.1.26-.16.53-.32.78-.49,4.6-3.11,9.2-6.22,13.79-9.36.27-.18.51-.27.76-.27.18,0,.36.04.57.13,4.4,1.74,8.8,3.45,13.21,5.17,1.06.41,2.11.82,3.34,1.29-.11-.53-.16-.88-.26-1.22-.15-.54-.34-1.07-.5-1.61-1.36-4.73-2.71-9.46-4.09-14.18-.18-.61-.1-1.04.31-1.53,3.54-4.29,7.05-8.59,10.57-12.89.18-.22.33-.45.55-.76-.27-.06-.43-.12-.58-.13-2.24-.08-4.48-.16-6.72-.22-3.41-.1-6.82-.2-10.23-.29-.66-.02-1.09-.23-1.47-.83-3-4.76-6.05-9.49-9.09-14.23-.11-.17-.26-.31-.46-.54h0Z"/>
      </g>
      <g>
        <path class="cls-2" d="M14.85,47.94c.26-4.54.53-9.09.81-13.63.05-.88-.28-1.59-1.02-2.17-3.91-3.03-7.82-6.07-11.73-9.12l-.52-.4c1.15-.3,8.84-2.3,8.84-2.3,2.08-.54,4.22-1.1,6.33-1.69.68-.19,1.35-.83,1.6-1.51,1.53-4.17,3.04-8.36,4.54-12.54l.76-2.12.77,1.19c2.51,3.91,5.02,7.81,7.5,11.74.58.91,1.35,1.35,2.43,1.38,3.41.08,6.81.18,10.22.29,1.7.05,3.39.11,5.09.17l-.95,1.16c-2.94,3.59-5.87,7.18-8.83,10.76-.65.79-.82,1.61-.53,2.6.98,3.34,1.94,6.69,2.9,10.03l1.19,4.14c.06.2.12.39.18.59l-4.07-1.58c-3.45-1.34-6.9-2.69-10.35-4.05-.35-.14-.68-.21-1-.21-.49,0-.96.16-1.43.48-3.75,2.56-7.51,5.11-11.27,7.66l-1.57,1.06c.02-.42.11-1.93.11-1.93Z"/>
        <path class="cls-1" d="M24.76,5.1c2.3,3.59,4.67,7.27,6.97,10.92.78,1.24,1.92,1.89,3.39,1.92,3.4.08,6.81.19,10.21.29.91.03,1.81.06,2.72.09-2.72,3.32-5.51,6.74-8.27,10.08-.89,1.08-1.15,2.32-.75,3.68.98,3.33,1.93,6.67,2.89,10l.71,2.48-1.53-.6c-3.56-1.39-7.11-2.77-10.67-4.18-.49-.19-.96-.29-1.43-.29-.72,0-1.43.23-2.09.68-3.62,2.47-7.25,4.93-10.88,7.39.25-4.4.51-8.79.78-13.19.05-.88-.16-2.15-1.47-3.16-3.46-2.68-6.91-5.37-10.36-8.06.38-.1.76-.2,1.14-.3,1.45-.38,2.9-.75,4.36-1.13l1.08-.28c2.07-.54,4.21-1.09,6.31-1.69,1.05-.3,2-1.19,2.38-2.23,1.51-4.13,3.03-8.33,4.49-12.4v-.03M24.16,0c-.14.32-.24.51-.31.71-1.93,5.34-3.84,10.68-5.8,16.01-.12.32-.49.69-.82.78-2.44.69-4.89,1.32-7.34,1.96-3.18.83-6.37,1.65-9.55,2.48-.1.03-.18.13-.35.25.27.23.48.42.7.59,4.4,3.43,8.81,6.86,13.22,10.28.4.31.6.64.57,1.17-.29,4.76-.57,9.53-.85,14.3-.06,1.11-.11,2.22-.17,3.33.07.03.14.07.21.1.26-.16.53-.32.78-.49,4.6-3.11,9.2-6.22,13.79-9.36.27-.18.51-.27.76-.27.18,0,.36.04.57.13,4.4,1.74,8.8,3.45,13.21,5.17,1.06.41,2.11.82,3.34,1.29-.11-.53-.16-.88-.26-1.22-.15-.54-.34-1.07-.5-1.61-1.36-4.73-2.71-9.46-4.09-14.18-.18-.61-.1-1.04.31-1.53,3.54-4.29,7.05-8.59,10.57-12.89.18-.22.33-.45.55-.76-.27-.06-.43-.12-.58-.13-2.24-.08-4.48-.16-6.72-.22-3.41-.1-6.82-.2-10.23-.29-.66-.02-1.09-.23-1.47-.83-3-4.76-6.05-9.49-9.09-14.23-.11-.17-.26-.31-.46-.54h0Z"/>
      </g>
    </g>
  </g>
</svg>