<?xml version="1.0" encoding="UTF-8"?>
<svg id="Layer_2" data-name="Layer 2" xmlns="http://www.w3.org/2000/svg" viewBox="0 0 42.45 25.82">
  <defs>
    <style>
      .cls-1 {
        fill: #fff;
      }
    </style>
  </defs>
  <g id="Layer_1-2" data-name="Layer 1">
    <path class="cls-1" d="M40.88,25.1c-2.41.82-4.91.42-7.38.49-6.66.19-13.33.35-19.99.09-3.15-.12-6.3-.02-9.44-.26-.44-.03-.89-.1-1.33-.17-1.83-.27-2.32-1.15-2.41-2.89-.1-2.09-.07-4.18-.11-6.27C.14,12.39.07,8.7,0,5c0-.51,0-1.02.05-1.52.06-.72.41-.88.96-.43.92.77,1.83,1.55,2.71,2.36,1.8,1.67,3.57,3.37,5.37,5.05.49.46.81.44,1.32-.03,3.07-2.85,5.89-5.94,8.81-8.92.34-.35.67-.71,1.02-1.05.59-.59,1.08-.62,1.7-.06.68.61,1.33,1.25,1.99,1.88.17.16.31.38.57.44,0,0,.01.01.01.01.02.18.15.28.27.39,1.81,1.67,3.55,3.42,5.3,5.16.62.62,1.14,1.36,1.89,1.85,0,0,.02.01.02.01.39.43.91.56,1.33.23.83-.67,1.67-1.34,2.36-2.17,0,0,0,0,0,0,.36-.15.64-.39.81-.74.03-.05.06-.11.08-.16,0,0,.03.01.03.01l-.02-.03c.12-.02.23-.06.3-.17.96-.71,1.8-1.55,2.57-2.45h.03s0-.05,0-.05c.19-.08.34-.19.39-.4.04,0,.06,0,.07-.05.52-.3.85-.8,1.28-1.2.21-.19.39-.43.73-.3.35.14.37.44.4.75.03.44-.11.89.12,1.31-.15.4-.16.8,0,1.2-.23.94-.16,1.88,0,2.82-.16.4-.14.8,0,1.2-.15.25-.15.5,0,.75-.16.5-.1,1.01-.03,1.51-.11.27-.13.54.03.81-.12.21-.1.43-.02.66-.1.13-.1.25,0,.38-.09.4-.09.81,0,1.21-.1.13-.1.25,0,.38-.07.3-.12.6.02.89-.15.21-.16.43,0,.64-.02.02-.03.05-.05.07.02,0,.03.01.05.02-.14.17-.15.34,0,.52-.02.03-.03.05-.05.08.02,0,.04.01.05.02-.16.14-.12.34-.13.51-.04,1.14-.11,2.27-.1,3.41,0,1.25-.25,2.37-1.18,3.27-.05.02-.1.04-.16.06Z"/>
  </g>
</svg>