<?xml version="1.0" encoding="UTF-8"?>
<svg id="Layer_2" data-name="Layer 2" xmlns="http://www.w3.org/2000/svg" viewBox="0 0 31.29 35.04">
  <defs>
    <style>
      .cls-1 {
        fill: #fff;
      }
    </style>
  </defs>
  <g id="Layer_1-2" data-name="Layer 1">
    <path class="cls-1" d="M2.23,18.25c1.62,1.45,3.21,2.88,4.84,4.34.22-.43.41-.8.61-1.18,1.33-2.51,2.65-5.03,4-7.53,1.93-3.59,3.89-7.17,5.83-10.76.5-.93,1.02-1.86,1.51-2.79C19.14.1,19.29,0,19.56,0c3.76,0,7.52,0,11.28,0,.44,0,.44,0,.44.45,0,3.33,0,6.67,0,10,0,.29-.09.5-.31.69-3.53,3.22-7.06,6.44-10.58,9.66-1.54,1.41-3.05,2.87-4.62,4.26-.7.62-1.49,1.14-2.24,1.72-.3.23-.58.5-.91.78.41.37.78.71,1.15,1.04,1.23,1.1,2.45,2.2,3.69,3.28.22.19.21.32.01.51-.87.83-1.74,1.67-2.6,2.52-.18.17-.29.14-.45-.02-1.52-1.44-3.06-2.86-4.57-4.31-.22-.21-.36-.23-.61-.06-2.15,1.47-4.32,2.92-6.47,4.38-.25.17-.39.14-.59-.06-.66-.69-1.32-1.36-2.01-2.03-.21-.2-.23-.35-.08-.6,1.35-2.21,2.68-4.42,4.03-6.63.12-.2.1-.29-.06-.44-1.31-1.21-2.6-2.44-3.91-3.66-.2-.19-.21-.32-.04-.53.64-.83,1.27-1.66,1.9-2.5.05-.07.11-.13.2-.23Z"/>
  </g>
</svg>